HIERARCHY
ROOT Hips
{
	OFFSET -3.958830 18.904000 13.208200
	CHANNELS 6 Xposition Yposition Zposition Zrotation Yrotation Xrotation 
	JOINT LHipJoint
	{
		OFFSET 0.000000 0.000000 0.000000
		CHANNELS 3 Zrotation Yrotation Xrotation
		JOINT LeftUpLeg
		{
			OFFSET 1.800000 -1.400000 0.085000
			CHANNELS 3 Zrotation Yrotation Xrotation
			JOINT LeftLeg
			{
				OFFSET 2.215000 -6.000000 0.000000
				CHANNELS 3 Zrotation Yrotation Xrotation
				JOINT LeftFoot
				{
					OFFSET 2.500000 -6.900000 0.000000
					CHANNELS 3 Zrotation Yrotation Xrotation
					JOINT LeftToeBase
					{
						OFFSET 0.200000 -0.500000 1.950000
						CHANNELS 3 Zrotation Yrotation Xrotation
						End Site
						{
							OFFSET 0.000000 0.000000 0.000000
						}
					}
				}
			}
		}
	}
	JOINT RHipJoint
	{
		OFFSET 0.000000 0.000000 0.000000
		CHANNELS 3 Zrotation Yrotation Xrotation
		JOINT RightUpLeg
		{
			OFFSET -1.800000 -1.400000 0.085000
			CHANNELS 3 Zrotation Yrotation Xrotation
			JOINT RightLeg
			{
				OFFSET -2.215000 -6.000000 0.000000
				CHANNELS 3 Zrotation Yrotation Xrotation
				JOINT RightFoot
				{
					OFFSET -2.500000 -6.900000 0.000000
					CHANNELS 3 Zrotation Yrotation Xrotation
					JOINT RightToeBase
					{
						OFFSET -0.200000 -0.500000 1.950000
						CHANNELS 3 Zrotation Yrotation Xrotation
						End Site
						{
							OFFSET 0.000000 0.000000 0.000000
						}
					}
				}
			}
		}
	}
	JOINT LowerBack
	{
		OFFSET 0.000000 0.000000 0.000000
		CHANNELS 3 Zrotation Yrotation Xrotation
		JOINT Spine
		{
			OFFSET -0.087000 1.940000 -0.288900
			CHANNELS 3 Zrotation Yrotation Xrotation
			JOINT Spine1
			{
				OFFSET 0.000000 1.950000 0.060000
				CHANNELS 3 Zrotation Yrotation Xrotation
				JOINT Neck
				{
					OFFSET 0.000000 0.000000 0.000000
					CHANNELS 3 Zrotation Yrotation Xrotation
					JOINT Neck1
					{
						OFFSET 0.000000 1.600000 0.340000
						CHANNELS 3 Zrotation Yrotation Xrotation
						JOINT Head
						{
							OFFSET 0.000000 1.667000 -0.240000
							CHANNELS 3 Zrotation Yrotation Xrotation
							End Site
							{
								OFFSET 0.000000 0.000000 0.000000
							}
						}
					}
				}
				JOINT LeftShoulder
				{
					OFFSET 0.000000 0.000000 0.000000
					CHANNELS 3 Zrotation Yrotation Xrotation
					JOINT LeftArm
					{
						OFFSET 2.700000 1.550000 -0.730000
						CHANNELS 3 Zrotation Yrotation Xrotation
						JOINT LeftForeArm
						{
							OFFSET 5.450000 0.000000 0.000000
							CHANNELS 3 Zrotation Yrotation Xrotation
							JOINT LeftHand
							{
								OFFSET 3.450000 0.000000 0.000000
								CHANNELS 3 Zrotation Yrotation Xrotation
								JOINT LeftHandIndex1
								{
									OFFSET 0.750000 0.000000 0.000000
									CHANNELS 3 Zrotation Yrotation Xrotation
									End Site
									{
										OFFSET 0.000000 0.000000 0.000000
									}
								}
							}
						}
					}
				}
				JOINT RightShoulder
				{
					OFFSET 0.000000 0.000000 0.000000
					CHANNELS 3 Zrotation Yrotation Xrotation
					JOINT RightArm
					{
						OFFSET -2.700000 1.550000 -0.730000
						CHANNELS 3 Zrotation Yrotation Xrotation
						JOINT RightForeArm
						{
							OFFSET -5.450000 0.000000 0.000000
							CHANNELS 3 Zrotation Yrotation Xrotation
							JOINT RightHand
							{
								OFFSET -3.450000 0.000000 0.000000
								CHANNELS 3 Zrotation Yrotation Xrotation
								JOINT RightHandIndex1
								{
									OFFSET -0.750000 0.000000 0.000000
									CHANNELS 3 Zrotation Yrotation Xrotation
									End Site
									{
										OFFSET 0.000000 0.000000 0.000000
									}
								}
							}
						}
					}
				}
			}
		}
	}
}
MOTION
Frames: 7
Frame Time: 0.016667
0.482180 15.174160 -4.801620 -8.042054 -15.607802 -8.959120 -16.557086 10.009397 7.305056 54.122331 -1.079848 -33.314209 -46.241228 34.760213 38.742675 1.511295 13.137794 -0.263896 0.702960 0.733690 0.667230 17.935623 -6.066970 3.256056 -34.394242 2.966330 -39.171802 15.178987 -21.466017 57.409438 -1.742957 -10.340773 0.549767 0.393970 -0.508910 0.062650 -1.624737 -5.378846 -10.624885 -9.438561 8.811171 52.257872 12.040929 7.183584 4.499338 -2.818716 -4.775352 -15.600840 -25.086301 16.997588 64.212896 -0.917140 8.567920 -21.747450 -35.757508 -35.954396 -0.172898 -19.315916 -39.627152 -5.150382 3.914239 -43.242460 -1.419535 -3.268427 2.778313 0.700500 -0.396890 0.569510 -0.061360 43.662819 36.534101 17.186118 25.688314 16.292083 -14.301678 62.277044 70.265548 33.979173 1.635080 -2.312025 0.048480 0.189380 -0.171950 -0.266780 
0.527550 15.150900 -4.779410 -6.815164 -15.530567 -8.135214 -16.425440 9.721620 7.283630 53.397683 -1.391794 -33.340892 -49.581794 34.577588 36.461712 1.544657 13.009321 -0.209422 0.702310 0.725360 0.664750 18.067431 -6.037732 3.564685 -36.780685 2.046470 -41.172594 15.568238 -22.086431 57.452696 -1.758529 -10.466587 0.508326 0.385890 -0.520020 0.054990 -2.024176 -4.810726 -10.726876 -5.890963 5.813350 52.845352 8.778769 5.389530 2.888186 -2.074551 -5.357051 -16.606885 -27.023997 18.525766 63.408330 -1.957380 7.876370 -21.175750 -36.329466 -36.324234 0.683750 -18.174292 -37.500186 -5.335900 3.372962 -35.225298 -1.022609 -3.289078 2.766374 0.696170 -0.410810 0.568320 -0.059980 42.717204 37.226364 16.454025 27.192012 18.404927 -13.346116 59.200284 68.436540 31.502933 1.801007 -2.115477 0.056220 0.190380 -0.171980 -0.259650 
0.586320 15.147270 -4.754730 -5.319946 -15.233520 -7.425790 -16.288649 9.462534 7.242722 51.984016 -1.675841 -33.566192 -52.375861 34.172635 34.459593 1.582867 12.888020 -0.151935 0.711190 0.729380 0.661260 18.199086 -6.036735 3.844681 -39.475026 0.897898 -42.340168 16.803628 -22.751597 56.151704 -1.751028 -10.474581 0.501964 0.386710 -0.529620 0.049450 -2.417908 -4.267461 -10.802425 -1.953762 2.623712 52.877186 5.265124 3.647297 1.955088 -1.184050 -5.856028 -17.486775 -28.565121 19.372435 62.629139 -2.998290 6.778550 -20.566270 -36.919358 -36.700346 1.796125 -17.949153 -36.117143 -4.868805 2.340081 -28.933596 -0.648762 -3.304888 2.751466 0.681260 -0.421670 0.566580 -0.046240 41.325647 38.116180 15.363171 28.342688 20.999819 -11.419648 59.801762 66.947474 31.577129 1.981416 -1.944169 0.069330 0.191280 -0.181510 -0.247420 
0.652980 15.157590 -4.719370 -3.682987 -15.033043 -6.848800 -16.109049 9.236145 7.170901 50.231573 -2.097326 -33.073233 -55.447380 33.195508 31.700751 1.629175 12.683115 -0.055754 0.725720 0.744640 0.651660 18.356026 -6.201417 4.011975 -41.453232 -0.416731 -42.965673 16.730252 -22.664583 54.888479 -1.700695 -10.325263 0.550241 0.393600 -0.538390 0.024470 -2.897323 -3.561657 -10.800835 2.410694 -0.885319 52.466899 1.164321 1.836355 1.430009 -0.352691 -6.563497 -18.114809 -30.372674 19.595665 60.767554 -3.768150 4.773470 -20.359510 -37.588612 -36.646087 2.733272 -17.929784 -34.414868 -4.589204 1.286343 -25.294179 -0.361117 -3.282077 2.745995 0.654180 -0.442280 0.557900 -0.018270 39.978706 38.537799 14.594475 30.706392 23.998060 -8.125023 68.846026 68.995792 38.449619 2.274791 -1.728370 0.082980 0.206080 -0.204160 -0.225180 
0.712720 15.185230 -4.681610 -1.657420 -14.651158 -6.442411 -15.908612 9.071047 7.040881 47.679422 -2.855346 -32.220819 -57.624352 31.622796 29.070829 1.634157 12.454417 0.027842 0.747080 0.761710 0.659170 18.515867 -6.476239 4.091911 -43.139539 -1.776915 -42.807936 16.200193 -22.121620 53.182466 -1.629361 -10.049036 0.618253 0.400330 -0.558640 0.014650 -3.393264 -2.817254 -10.731112 6.492878 -4.216526 51.752098 -3.116438 0.032983 1.273397 0.486766 -7.313163 -18.575502 -31.908841 19.360395 58.494200 -4.672140 2.640550 -21.750310 -38.404168 -36.384050 3.713987 -17.928678 -32.239488 -5.041520 1.012408 -23.885608 -0.348252 -3.225752 2.752342 0.653550 -0.474190 0.567560 -0.004370 38.698124 38.885185 13.914374 33.609057 26.988890 -4.871764 79.576239 70.792390 46.493470 2.666277 -1.321321 0.096910 0.221630 -0.219190 -0.209760 
0.769790 15.236860 -4.656370 0.553293 -14.307009 -6.193207 -15.702284 9.016360 6.875234 44.282640 -3.419979 -31.683767 -57.993664 30.438044 27.795763 1.617765 12.288962 0.080240 0.738860 0.746010 0.656140 18.659214 -6.846915 4.085638 -44.219211 -2.689452 -42.388051 14.594915 -20.675167 51.011942 -1.488467 -9.575280 0.742118 0.394600 -0.571650 0.009490 -3.859306 -2.070627 -10.627466 9.936763 -7.101244 50.364666 -7.729246 -1.562831 2.217042 1.625817 -7.590218 -19.471202 -31.186060 18.649816 57.094847 -5.860900 1.637320 -22.459590 -39.631004 -36.988438 5.195294 -16.903390 -29.259116 -6.617796 0.964552 -24.187330 -0.367491 -3.154684 2.808991 0.649880 -0.482410 0.560850 -0.010830 37.154906 40.291397 13.607198 35.461458 31.998343 -1.735898 80.469323 73.209524 49.377427 2.779967 -1.113541 0.096270 0.218240 -0.215280 -0.211140 
0.835050 15.294890 -4.639990 2.240485 -13.769929 -6.116503 -15.523047 9.047406 6.718810 40.984499 -3.779574 -31.364831 -57.544577 29.531276 27.252422 1.601057 12.161736 0.127053 0.727540 0.719620 0.648000 18.771228 -7.212922 4.019337 -44.648398 -2.922051 -41.912754 12.522309 -19.155767 49.442135 -1.358265 -9.123275 0.867350 0.386840 -0.575330 0.004880 -4.231152 -1.483125 -10.508051 13.542431 -9.910277 49.162678 -11.927626 -2.800526 3.533596 2.955237 -7.607630 -20.592943 -29.870718 17.421812 55.835522 -6.291920 0.567160 -22.771800 -41.050379 -37.964720 6.911787 -15.690455 -26.765624 -8.405912 0.869578 -25.132880 -0.367921 -3.057548 2.901331 0.646690 -0.486640 0.544870 -0.014020 35.457388 42.151467 13.598018 34.175590 36.645015 -0.285066 73.457247 76.979842 48.337551 2.531232 -1.356592 0.089200 0.209730 -0.212350 -0.214390 
